<mxfile host="Electron" agent="Mozilla/5.0 (Windows NT 10.0; Win64; x64) AppleWebKit/537.36 (KHTML, like Gecko) draw.io/26.0.4 Chrome/128.0.6613.186 Electron/32.2.5 Safari/537.36" version="26.0.4">
  <diagram name="Page-1" id="k1EDUq9Aw5LpfZc_MFjJ">
    <mxGraphModel dx="1170" dy="388" grid="1" gridSize="10" guides="1" tooltips="1" connect="1" arrows="1" fold="1" page="1" pageScale="1" pageWidth="570" pageHeight="940" math="0" shadow="0">
      <root>
        <mxCell id="0" />
        <mxCell id="1" parent="0" />
        <mxCell id="0nL7bg7aXwzPdWPX4S4Y-18" value="" style="group" vertex="1" connectable="0" parent="1">
          <mxGeometry x="-560" y="40" width="210" height="190" as="geometry" />
        </mxCell>
        <mxCell id="0nL7bg7aXwzPdWPX4S4Y-1" value="S" style="ellipse;whiteSpace=wrap;html=1;aspect=fixed;fillColor=none;" vertex="1" parent="0nL7bg7aXwzPdWPX4S4Y-18">
          <mxGeometry x="80" width="30" height="30" as="geometry" />
        </mxCell>
        <mxCell id="0nL7bg7aXwzPdWPX4S4Y-2" value="B" style="ellipse;whiteSpace=wrap;html=1;aspect=fixed;fillColor=none;" vertex="1" parent="0nL7bg7aXwzPdWPX4S4Y-18">
          <mxGeometry x="40" y="50" width="30" height="30" as="geometry" />
        </mxCell>
        <mxCell id="0nL7bg7aXwzPdWPX4S4Y-3" value="D" style="ellipse;whiteSpace=wrap;html=1;aspect=fixed;fillColor=none;" vertex="1" parent="0nL7bg7aXwzPdWPX4S4Y-18">
          <mxGeometry y="100" width="30" height="30" as="geometry" />
        </mxCell>
        <mxCell id="0nL7bg7aXwzPdWPX4S4Y-4" value="C" style="ellipse;whiteSpace=wrap;html=1;aspect=fixed;fillColor=none;" vertex="1" parent="0nL7bg7aXwzPdWPX4S4Y-18">
          <mxGeometry x="70" y="100" width="30" height="30" as="geometry" />
        </mxCell>
        <mxCell id="0nL7bg7aXwzPdWPX4S4Y-5" value="A" style="ellipse;whiteSpace=wrap;html=1;aspect=fixed;fillColor=none;" vertex="1" parent="0nL7bg7aXwzPdWPX4S4Y-18">
          <mxGeometry x="130" y="50" width="30" height="30" as="geometry" />
        </mxCell>
        <mxCell id="0nL7bg7aXwzPdWPX4S4Y-6" value="E" style="ellipse;whiteSpace=wrap;html=1;aspect=fixed;fillColor=none;" vertex="1" parent="0nL7bg7aXwzPdWPX4S4Y-18">
          <mxGeometry x="150" y="100" width="30" height="30" as="geometry" />
        </mxCell>
        <mxCell id="0nL7bg7aXwzPdWPX4S4Y-7" value="F" style="ellipse;whiteSpace=wrap;html=1;aspect=fixed;fillColor=none;" vertex="1" parent="0nL7bg7aXwzPdWPX4S4Y-18">
          <mxGeometry x="120" y="160" width="30" height="30" as="geometry" />
        </mxCell>
        <mxCell id="0nL7bg7aXwzPdWPX4S4Y-8" value="G" style="ellipse;whiteSpace=wrap;html=1;aspect=fixed;fillColor=none;" vertex="1" parent="0nL7bg7aXwzPdWPX4S4Y-18">
          <mxGeometry x="180" y="160" width="30" height="30" as="geometry" />
        </mxCell>
        <mxCell id="0nL7bg7aXwzPdWPX4S4Y-9" value="" style="endArrow=none;html=1;rounded=0;entryX=0;entryY=1;entryDx=0;entryDy=0;exitX=0.714;exitY=0.054;exitDx=0;exitDy=0;exitPerimeter=0;" edge="1" parent="0nL7bg7aXwzPdWPX4S4Y-18" source="0nL7bg7aXwzPdWPX4S4Y-2" target="0nL7bg7aXwzPdWPX4S4Y-1">
          <mxGeometry width="50" height="50" relative="1" as="geometry">
            <mxPoint x="60" y="50" as="sourcePoint" />
            <mxPoint x="320" y="190" as="targetPoint" />
          </mxGeometry>
        </mxCell>
        <mxCell id="0nL7bg7aXwzPdWPX4S4Y-10" value="" style="endArrow=none;html=1;rounded=0;exitX=1;exitY=0;exitDx=0;exitDy=0;entryX=0;entryY=1;entryDx=0;entryDy=0;" edge="1" parent="0nL7bg7aXwzPdWPX4S4Y-18" source="0nL7bg7aXwzPdWPX4S4Y-3" target="0nL7bg7aXwzPdWPX4S4Y-2">
          <mxGeometry width="50" height="50" relative="1" as="geometry">
            <mxPoint x="140" y="140" as="sourcePoint" />
            <mxPoint x="190" y="90" as="targetPoint" />
          </mxGeometry>
        </mxCell>
        <mxCell id="0nL7bg7aXwzPdWPX4S4Y-11" value="" style="endArrow=none;html=1;rounded=0;exitX=0.5;exitY=0;exitDx=0;exitDy=0;entryX=1;entryY=1;entryDx=0;entryDy=0;" edge="1" parent="0nL7bg7aXwzPdWPX4S4Y-18" source="0nL7bg7aXwzPdWPX4S4Y-4" target="0nL7bg7aXwzPdWPX4S4Y-2">
          <mxGeometry width="50" height="50" relative="1" as="geometry">
            <mxPoint x="140" y="140" as="sourcePoint" />
            <mxPoint x="190" y="90" as="targetPoint" />
          </mxGeometry>
        </mxCell>
        <mxCell id="0nL7bg7aXwzPdWPX4S4Y-12" value="" style="endArrow=none;html=1;rounded=0;exitX=0;exitY=0;exitDx=0;exitDy=0;entryX=1;entryY=1;entryDx=0;entryDy=0;" edge="1" parent="0nL7bg7aXwzPdWPX4S4Y-18" source="0nL7bg7aXwzPdWPX4S4Y-5" target="0nL7bg7aXwzPdWPX4S4Y-1">
          <mxGeometry width="50" height="50" relative="1" as="geometry">
            <mxPoint x="170" y="140" as="sourcePoint" />
            <mxPoint x="220" y="90" as="targetPoint" />
          </mxGeometry>
        </mxCell>
        <mxCell id="0nL7bg7aXwzPdWPX4S4Y-13" value="" style="endArrow=none;html=1;rounded=0;exitX=1;exitY=1;exitDx=0;exitDy=0;entryX=0.5;entryY=0;entryDx=0;entryDy=0;" edge="1" parent="0nL7bg7aXwzPdWPX4S4Y-18" source="0nL7bg7aXwzPdWPX4S4Y-5" target="0nL7bg7aXwzPdWPX4S4Y-6">
          <mxGeometry width="50" height="50" relative="1" as="geometry">
            <mxPoint x="170" y="140" as="sourcePoint" />
            <mxPoint x="220" y="90" as="targetPoint" />
          </mxGeometry>
        </mxCell>
        <mxCell id="0nL7bg7aXwzPdWPX4S4Y-14" value="" style="endArrow=none;html=1;rounded=0;exitX=0.5;exitY=0;exitDx=0;exitDy=0;entryX=0;entryY=1;entryDx=0;entryDy=0;" edge="1" parent="0nL7bg7aXwzPdWPX4S4Y-18" source="0nL7bg7aXwzPdWPX4S4Y-7" target="0nL7bg7aXwzPdWPX4S4Y-6">
          <mxGeometry width="50" height="50" relative="1" as="geometry">
            <mxPoint x="170" y="140" as="sourcePoint" />
            <mxPoint x="220" y="90" as="targetPoint" />
          </mxGeometry>
        </mxCell>
        <mxCell id="0nL7bg7aXwzPdWPX4S4Y-15" value="" style="endArrow=none;html=1;rounded=0;exitX=0.5;exitY=0;exitDx=0;exitDy=0;entryX=1;entryY=1;entryDx=0;entryDy=0;" edge="1" parent="0nL7bg7aXwzPdWPX4S4Y-18" source="0nL7bg7aXwzPdWPX4S4Y-8" target="0nL7bg7aXwzPdWPX4S4Y-6">
          <mxGeometry width="50" height="50" relative="1" as="geometry">
            <mxPoint x="170" y="140" as="sourcePoint" />
            <mxPoint x="220" y="90" as="targetPoint" />
          </mxGeometry>
        </mxCell>
        <mxCell id="0nL7bg7aXwzPdWPX4S4Y-19" value="" style="group" vertex="1" connectable="0" parent="1">
          <mxGeometry x="-240" y="40" width="210" height="190" as="geometry" />
        </mxCell>
        <mxCell id="0nL7bg7aXwzPdWPX4S4Y-20" value="S,nil" style="ellipse;whiteSpace=wrap;html=1;aspect=fixed;fillColor=none;" vertex="1" parent="0nL7bg7aXwzPdWPX4S4Y-19">
          <mxGeometry x="80" width="30" height="30" as="geometry" />
        </mxCell>
        <mxCell id="0nL7bg7aXwzPdWPX4S4Y-21" value="B,S" style="ellipse;whiteSpace=wrap;html=1;aspect=fixed;fillColor=none;" vertex="1" parent="0nL7bg7aXwzPdWPX4S4Y-19">
          <mxGeometry x="40" y="50" width="30" height="30" as="geometry" />
        </mxCell>
        <mxCell id="0nL7bg7aXwzPdWPX4S4Y-22" value="D,B" style="ellipse;whiteSpace=wrap;html=1;aspect=fixed;fillColor=none;" vertex="1" parent="0nL7bg7aXwzPdWPX4S4Y-19">
          <mxGeometry y="100" width="30" height="30" as="geometry" />
        </mxCell>
        <mxCell id="0nL7bg7aXwzPdWPX4S4Y-23" value="C,B" style="ellipse;whiteSpace=wrap;html=1;aspect=fixed;fillColor=none;" vertex="1" parent="0nL7bg7aXwzPdWPX4S4Y-19">
          <mxGeometry x="70" y="100" width="30" height="30" as="geometry" />
        </mxCell>
        <mxCell id="0nL7bg7aXwzPdWPX4S4Y-24" value="A,S" style="ellipse;whiteSpace=wrap;html=1;aspect=fixed;fillColor=none;" vertex="1" parent="0nL7bg7aXwzPdWPX4S4Y-19">
          <mxGeometry x="130" y="50" width="30" height="30" as="geometry" />
        </mxCell>
        <mxCell id="0nL7bg7aXwzPdWPX4S4Y-25" value="E,A" style="ellipse;whiteSpace=wrap;html=1;aspect=fixed;fillColor=none;" vertex="1" parent="0nL7bg7aXwzPdWPX4S4Y-19">
          <mxGeometry x="150" y="100" width="30" height="30" as="geometry" />
        </mxCell>
        <mxCell id="0nL7bg7aXwzPdWPX4S4Y-26" value="F,E" style="ellipse;whiteSpace=wrap;html=1;aspect=fixed;fillColor=none;" vertex="1" parent="0nL7bg7aXwzPdWPX4S4Y-19">
          <mxGeometry x="120" y="160" width="30" height="30" as="geometry" />
        </mxCell>
        <mxCell id="0nL7bg7aXwzPdWPX4S4Y-27" value="G,E" style="ellipse;whiteSpace=wrap;html=1;aspect=fixed;fillColor=none;" vertex="1" parent="0nL7bg7aXwzPdWPX4S4Y-19">
          <mxGeometry x="180" y="160" width="30" height="30" as="geometry" />
        </mxCell>
        <mxCell id="0nL7bg7aXwzPdWPX4S4Y-28" value="" style="endArrow=none;html=1;rounded=0;entryX=0;entryY=1;entryDx=0;entryDy=0;exitX=0.714;exitY=0.054;exitDx=0;exitDy=0;exitPerimeter=0;" edge="1" parent="0nL7bg7aXwzPdWPX4S4Y-19" source="0nL7bg7aXwzPdWPX4S4Y-21" target="0nL7bg7aXwzPdWPX4S4Y-20">
          <mxGeometry width="50" height="50" relative="1" as="geometry">
            <mxPoint x="60" y="50" as="sourcePoint" />
            <mxPoint x="320" y="190" as="targetPoint" />
          </mxGeometry>
        </mxCell>
        <mxCell id="0nL7bg7aXwzPdWPX4S4Y-29" value="" style="endArrow=none;html=1;rounded=0;exitX=1;exitY=0;exitDx=0;exitDy=0;entryX=0;entryY=1;entryDx=0;entryDy=0;" edge="1" parent="0nL7bg7aXwzPdWPX4S4Y-19" source="0nL7bg7aXwzPdWPX4S4Y-22" target="0nL7bg7aXwzPdWPX4S4Y-21">
          <mxGeometry width="50" height="50" relative="1" as="geometry">
            <mxPoint x="140" y="140" as="sourcePoint" />
            <mxPoint x="190" y="90" as="targetPoint" />
          </mxGeometry>
        </mxCell>
        <mxCell id="0nL7bg7aXwzPdWPX4S4Y-30" value="" style="endArrow=none;html=1;rounded=0;exitX=0.5;exitY=0;exitDx=0;exitDy=0;entryX=1;entryY=1;entryDx=0;entryDy=0;" edge="1" parent="0nL7bg7aXwzPdWPX4S4Y-19" source="0nL7bg7aXwzPdWPX4S4Y-23" target="0nL7bg7aXwzPdWPX4S4Y-21">
          <mxGeometry width="50" height="50" relative="1" as="geometry">
            <mxPoint x="140" y="140" as="sourcePoint" />
            <mxPoint x="190" y="90" as="targetPoint" />
          </mxGeometry>
        </mxCell>
        <mxCell id="0nL7bg7aXwzPdWPX4S4Y-31" value="" style="endArrow=none;html=1;rounded=0;exitX=0;exitY=0;exitDx=0;exitDy=0;entryX=1;entryY=1;entryDx=0;entryDy=0;" edge="1" parent="0nL7bg7aXwzPdWPX4S4Y-19" source="0nL7bg7aXwzPdWPX4S4Y-24" target="0nL7bg7aXwzPdWPX4S4Y-20">
          <mxGeometry width="50" height="50" relative="1" as="geometry">
            <mxPoint x="170" y="140" as="sourcePoint" />
            <mxPoint x="220" y="90" as="targetPoint" />
          </mxGeometry>
        </mxCell>
        <mxCell id="0nL7bg7aXwzPdWPX4S4Y-32" value="" style="endArrow=none;html=1;rounded=0;exitX=1;exitY=1;exitDx=0;exitDy=0;entryX=0.5;entryY=0;entryDx=0;entryDy=0;" edge="1" parent="0nL7bg7aXwzPdWPX4S4Y-19" source="0nL7bg7aXwzPdWPX4S4Y-24" target="0nL7bg7aXwzPdWPX4S4Y-25">
          <mxGeometry width="50" height="50" relative="1" as="geometry">
            <mxPoint x="170" y="140" as="sourcePoint" />
            <mxPoint x="220" y="90" as="targetPoint" />
          </mxGeometry>
        </mxCell>
        <mxCell id="0nL7bg7aXwzPdWPX4S4Y-33" value="" style="endArrow=none;html=1;rounded=0;exitX=0.5;exitY=0;exitDx=0;exitDy=0;entryX=0;entryY=1;entryDx=0;entryDy=0;" edge="1" parent="0nL7bg7aXwzPdWPX4S4Y-19" source="0nL7bg7aXwzPdWPX4S4Y-26" target="0nL7bg7aXwzPdWPX4S4Y-25">
          <mxGeometry width="50" height="50" relative="1" as="geometry">
            <mxPoint x="170" y="140" as="sourcePoint" />
            <mxPoint x="220" y="90" as="targetPoint" />
          </mxGeometry>
        </mxCell>
        <mxCell id="0nL7bg7aXwzPdWPX4S4Y-34" value="" style="endArrow=none;html=1;rounded=0;exitX=0.5;exitY=0;exitDx=0;exitDy=0;entryX=1;entryY=1;entryDx=0;entryDy=0;" edge="1" parent="0nL7bg7aXwzPdWPX4S4Y-19" source="0nL7bg7aXwzPdWPX4S4Y-27" target="0nL7bg7aXwzPdWPX4S4Y-25">
          <mxGeometry width="50" height="50" relative="1" as="geometry">
            <mxPoint x="170" y="140" as="sourcePoint" />
            <mxPoint x="220" y="90" as="targetPoint" />
          </mxGeometry>
        </mxCell>
        <mxCell id="0nL7bg7aXwzPdWPX4S4Y-37" value="" style="endArrow=classic;html=1;rounded=0;" edge="1" parent="1">
          <mxGeometry width="50" height="50" relative="1" as="geometry">
            <mxPoint x="-360" y="120" as="sourcePoint" />
            <mxPoint x="-250" y="120" as="targetPoint" />
          </mxGeometry>
        </mxCell>
        <mxCell id="0nL7bg7aXwzPdWPX4S4Y-39" value="&lt;font style=&quot;font-size: 13px;&quot;&gt;[Current,Parent]&lt;/font&gt;" style="text;html=1;align=center;verticalAlign=middle;whiteSpace=wrap;rounded=0;" vertex="1" parent="1">
          <mxGeometry x="-170" y="250" width="100" height="20" as="geometry" />
        </mxCell>
      </root>
    </mxGraphModel>
  </diagram>
</mxfile>
